<svg xmlns="http://www.w3.org/2000/svg" xmlns:xlink="http://www.w3.org/1999/xlink" viewBox="0 0 1280 1024"><defs><style>.cls-1{fill:none;}.cls-2{fill:#4d45b1;}.cls-3{clip-path:url(#clip-path);}.cls-4{fill:url(#linear-gradient);}.cls-5{clip-path:url(#clip-path-2);}.cls-6{fill:url(#linear-gradient-2);}.cls-7{clip-path:url(#clip-path-3);}.cls-8{fill:url(#linear-gradient-3);}.cls-9{clip-path:url(#clip-path-4);}.cls-10{fill:url(#linear-gradient-4);}.cls-11{opacity:0.75;}.cls-12{clip-path:url(#clip-path-5);}.cls-13{fill:#bfdbf7;}</style><clipPath id="clip-path"><polygon class="cls-1" points="80.85 427.73 80.85 494.32 177.37 410.64 177.37 344.06 80.85 427.73"/></clipPath><linearGradient id="linear-gradient" x1="1690.76" y1="-588.09" x2="1693.47" y2="-588.09" gradientTransform="matrix(0, -55.48, -55.48, 0, -32500.57, 94304.56)" gradientUnits="userSpaceOnUse"><stop offset="0" stop-color="#4d45b1"/><stop offset="1" stop-color="#bfdbf7"/></linearGradient><clipPath id="clip-path-2"><polygon class="cls-1" points="177.37 410.64 273.89 494.32 273.89 427.73 177.37 344.06 177.37 410.64"/></clipPath><linearGradient id="linear-gradient-2" x1="1733.78" y1="-667.5" x2="1736.49" y2="-667.5" gradientTransform="matrix(0, 56.14, 56.14, 0, 37702, -97014.29)" xlink:href="#linear-gradient"/><clipPath id="clip-path-3"><polygon class="cls-1" points="80.85 596.27 177.37 679.94 177.37 613.36 80.85 529.68 80.85 596.27"/></clipPath><linearGradient id="linear-gradient-3" x1="1771.53" y1="-588.09" x2="1774.24" y2="-588.09" gradientTransform="translate(-32500.57 -97761.9) rotate(90) scale(55.48)" xlink:href="#linear-gradient"/><clipPath id="clip-path-4"><polygon class="cls-1" points="177.37 613.36 177.37 679.94 273.89 596.27 273.89 529.68 177.37 613.36"/></clipPath><linearGradient id="linear-gradient-4" x1="1680.75" y1="-607.84" x2="1683.46" y2="-607.84" gradientTransform="translate(-94230.56 34731.93) scale(56.14)" xlink:href="#linear-gradient"/><clipPath id="clip-path-5"><rect class="cls-1" x="80.85" y="427.73" width="193.04" height="168.53"/></clipPath></defs><g id="art5"><path class="cls-2" d="M472.24,416.39v3.22a46,46,0,0,0-13,2.25,23.5,23.5,0,0,0-8.9,5.88q-5.47,5.61-6.73,15.57a153.85,153.85,0,0,0-.84,17.1V563.73a117.28,117.28,0,0,0,1.12,18.37,29.9,29.9,0,0,0,3.64,10.79,22.69,22.69,0,0,0,9.4,8.34q5.75,2.73,15.28,3.3v3.22H382.66v-3.22a44,44,0,0,0,13.1-2.32,23.81,23.81,0,0,0,8.77-5.82,22.66,22.66,0,0,0,6-11.35q1.54-6.87,1.54-21.31V460.41q0-14.43-1.54-21.31a22.74,22.74,0,0,0-6-11.36,22.34,22.34,0,0,0-8.84-5.88,46.76,46.76,0,0,0-13-2.25v-3.22Z"/><path class="cls-2" d="M579,607.19l.42-57.9,3.22.14q5.89,22.1,14,34.82,15.29,23.5,38.41,23.5,16.13,0,26.64-10.79t10.52-27.34A48.93,48.93,0,0,0,669.89,555a42.65,42.65,0,0,0-6.24-12.76,47.63,47.63,0,0,0-11.42-10.51A214.44,214.44,0,0,0,629.73,519a225.56,225.56,0,0,1-20.4-11.35,59.52,59.52,0,0,1-11.43-9.4q-12-13.17-12-32.1a55.51,55.51,0,0,1,4.7-22.43,53.93,53.93,0,0,1,13.1-18.51,50.11,50.11,0,0,1,35.19-13.74,52.66,52.66,0,0,1,12.2,1.34,105,105,0,0,1,15,5.25q7,2.81,9.53,3.58a15.66,15.66,0,0,0,4.49.77q4.91,0,6.58-7.15h3.23l1,55.66h-3.22q-3.78-13.32-6.51-20.4a76.27,76.27,0,0,0-6.51-13.11q-6.86-10.94-15.11-16.19a34.64,34.64,0,0,0-19-5.26q-15.69,0-24.77,10.67a32.36,32.36,0,0,0-6,10.24,33.85,33.85,0,0,0-2.17,11.79q0,23.43,30.09,37.75L657.41,496q22.82,10.82,32.9,23.86a53.36,53.36,0,0,1,11.47,34,60.41,60.41,0,0,1-5.18,24.61,54.93,54.93,0,0,1-21.87,25.25q-14.58,8.86-34.35,8.88a87.55,87.55,0,0,1-34.77-7.15c-5.79-2.52-9.25-4-10.37-4.35a12,12,0,0,0-3.78-.56q-6.74,0-9.26,6.73Z"/><path class="cls-2" d="M896.29,416.39v3.22a46,46,0,0,0-13,2.25,23.5,23.5,0,0,0-8.9,5.88q-5.48,5.61-6.73,15.57a153.85,153.85,0,0,0-.84,17.1V563.73A117.28,117.28,0,0,0,868,582.1a29.71,29.71,0,0,0,3.64,10.79,22.67,22.67,0,0,0,9.39,8.34q5.76,2.73,15.29,3.3v3.22H806.71v-3.22a44.07,44.07,0,0,0,13.1-2.32,23.7,23.7,0,0,0,8.76-5.82,22.6,22.6,0,0,0,6-11.35q1.54-6.87,1.54-21.31V460.41q0-14.43-1.54-21.31a22.67,22.67,0,0,0-6-11.36,22.24,22.24,0,0,0-8.83-5.88,46.76,46.76,0,0,0-13-2.25v-3.22Z"/><path class="cls-2" d="M1031.35,441.76v122q0,14.44,1.61,21.31a23.72,23.72,0,0,0,6,11.36,23.39,23.39,0,0,0,8.9,5.88,45.23,45.23,0,0,0,13,2.25v3.22H996.16v-3.22a45.1,45.1,0,0,0,13-2.25,23.42,23.42,0,0,0,8.91-5.88,23.8,23.8,0,0,0,6-11.43q1.62-6.94,1.62-21.24V460.27q0-14.16-1.62-21.1a23.8,23.8,0,0,0-6-11.43,22.5,22.5,0,0,0-8.76-5.88,46.43,46.43,0,0,0-13.11-2.25v-3.22h54L1164,561.63V460.41q0-14.43-1.62-21.31a23.57,23.57,0,0,0-14.86-17.24,45.87,45.87,0,0,0-13-2.25v-3.22h64.62v3.22q-14,0-21.86,8.13a23.73,23.73,0,0,0-6,11.43q-1.62,6.94-1.62,21.1V607.75h-6.3Z"/><g class="cls-3"><rect class="cls-4" x="80.85" y="344.06" width="96.52" height="150.26"/></g><g class="cls-5"><rect class="cls-6" x="137.41" y="333.2" width="176.43" height="171.97" transform="translate(-237.58 309.33) rotate(-48.37)"/></g><g class="cls-7"><rect class="cls-8" x="80.85" y="529.68" width="96.52" height="150.26"/></g><g class="cls-9"><rect class="cls-10" x="139.64" y="516.6" width="171.97" height="176.43" transform="translate(-344.82 302.67) rotate(-41.63)"/></g><g class="cls-11"><g class="cls-12"><polygon class="cls-13" points="80.85 494.32 273.89 596.27 273.89 529.68 80.85 427.73 80.85 494.32"/></g></g></g></svg>